<?xml version="1.0" encoding="utf-8"?>
<!-- Generator: Adobe Illustrator 22.0.1, SVG Export Plug-In . SVG Version: 6.00 Build 0)  -->
<svg version="1.1" id="Layer_1" xmlns="http://www.w3.org/2000/svg" xmlns:xlink="http://www.w3.org/1999/xlink" x="0px" y="0px"
	 viewBox="0 0 480 480" style="enable-background:new 0 0 480 480;" xml:space="preserve">
<style type="text/css">
	.st0{fill:#194A50;}
	.st1{fill:#DBC295;}
</style>
<path class="st0" d="M40,480h360c4.4,0,8-3.6,8-8V264h-16v200H40c-13.3,0-24-10.7-24-24s10.7-24,24-24h16c4.4,0,8-3.6,8-8V168h128
	v-16H64V96c0-4.4-3.6-8-8-8H40c-22.1,0-40,17.9-40,40v312C0,462.1,17.9,480,40,480z M16,160v-32c0-13.3,10.7-24,24-24h8v296h-8
	c-8.7,0-17.1,2.8-24,8V160z"/>
<path class="st0" d="M184,192H88c-4.4,0-8,3.6-8,8v64c0,4.4,3.6,8,8,8h96c4.4,0,8-3.6,8-8v-24h32v-16h-32v-24
	C192,195.6,188.4,192,184,192z M176,256H96v-48h80V256z"/>
<path class="st0" d="M264,416h96c4.4,0,8-3.6,8-8v-64c0-4.4-3.6-8-8-8h-40v-48h-16v48h-40c-4.4,0-8,3.6-8,8v24h-64v-24
	c0-4.4-3.6-8-8-8H88c-4.4,0-8,3.6-8,8v64c0,4.4,3.6,8,8,8h96c4.4,0,8-3.6,8-8v-24h64v24C256,412.4,259.6,416,264,416z M272,352h80
	v48h-80V352z M176,400H96v-48h80V400z"/>
<path class="st1" d="M344,64c-39.8,0-72,32.2-72,72s32.2,72,72,72s72-32.2,72-72C416,96.3,383.7,64,344,64z M344,192
	c-30.9,0-56-25.1-56-56s25.1-56,56-56s56,25.1,56,56C400,166.9,374.9,192,344,192z"/>
<path class="st1" d="M472,168c4.4,0,8-3.6,8-8v-48c0-4.4-3.6-8-8-8h-29.1c-1.7-5.3-3.8-10.4-6.3-15.3l20.6-20.6
	c1.5-1.5,2.4-3.5,2.4-5.7s-0.8-4.2-2.4-5.7l-34-34c-1.5-1.5-3.5-2.3-5.7-2.3c-2.1,0-4.2,0.8-5.7,2.4l-20.6,20.6
	c-4.9-2.5-10-4.6-15.3-6.3V8c0-4.4-3.6-8-8-8h-48c-4.4,0-8,3.6-8,8v29.1c-5.3,1.7-10.4,3.8-15.3,6.3l-20.6-20.6
	c-1.5-1.5-3.5-2.3-5.7-2.4c-2.1,0-4.2,0.8-5.7,2.3l-34,34c-1.5,1.5-2.4,3.5-2.4,5.7s0.8,4.2,2.4,5.7l20.6,20.6
	c-2.5,4.9-4.6,10-6.3,15.3H216c-4.4,0-8,3.6-8,8v48c0,4.4,3.6,8,8,8h29.1c1.7,5.3,3.8,10.4,6.3,15.3l-20.6,20.6
	c-1.5,1.5-2.4,3.5-2.4,5.7c0,2.1,0.8,4.2,2.4,5.7l34,33.9c3.1,3.1,8.2,3.1,11.3,0l20.6-20.6c4.9,2.5,10.1,4.6,15.3,6.3V264
	c0,4.4,3.6,8,8,8h48c4.4,0,8-3.6,8-8v-29.1c5.3-1.7,10.4-3.8,15.3-6.3l20.6,20.6c3.1,3.1,8.2,3.1,11.3,0l34-33.9
	c1.5-1.5,2.4-3.5,2.4-5.7s-0.8-4.2-2.4-5.7l-20.6-20.6c2.5-4.9,4.6-10,6.3-15.3H472z M429.2,158c-2.1,8-5.3,15.6-9.4,22.7
	c-1.8,3.1-1.3,7.1,1.3,9.7l19.2,19.1l-22.7,22.6L398.4,213c-2.6-2.6-6.5-3.1-9.7-1.3c-7.1,4.2-14.8,7.3-22.7,9.4
	c-3.5,0.9-6,4.1-6,7.7V256h-32v-27.1c0-3.6-2.4-6.8-6-7.7c-8-2.1-15.6-5.3-22.7-9.4c-3.1-1.8-7.1-1.3-9.7,1.3l-19.1,19.1l-22.7-22.6
	l19.2-19.1c2.6-2.6,3.1-6.6,1.3-9.7c-4.2-7.1-7.3-14.8-9.4-22.7c-0.9-3.5-4.1-6-7.7-6H224v-32h27.1c3.6,0,6.8-2.4,7.7-6
	c2.1-8,5.3-15.6,9.4-22.7c1.8-3.1,1.3-7.1-1.3-9.7l-19.2-19.1l22.7-22.7L289.6,59c2.6,2.6,6.6,3.1,9.7,1.3
	c7.1-4.2,14.8-7.3,22.7-9.4c3.5-0.9,5.9-4.1,6-7.7V16h32v27.1c0,3.6,2.4,6.8,6,7.7c8,2.1,15.6,5.3,22.7,9.4c3.1,1.8,7.1,1.3,9.7-1.3
	l19.1-19.2l22.7,22.7L421,81.6c-2.6,2.6-3.1,6.6-1.3,9.7c4.1,7.1,7.3,14.8,9.4,22.7c0.9,3.5,4.1,5.9,7.7,6H464v32h-27.1
	C433.3,152,430.1,154.4,429.2,158z"/>
<path class="st1" d="M344,104c-17.7,0-32,14.3-32,32s14.3,32,32,32s32-14.3,32-32S361.7,104,344,104z M344,152c-8.8,0-16-7.2-16-16
	s7.2-16,16-16s16,7.2,16,16S352.8,152,344,152z"/>
</svg>
