<?xml version="1.0" encoding="utf-8"?>
<!-- Generator: Adobe Illustrator 22.0.1, SVG Export Plug-In . SVG Version: 6.00 Build 0)  -->
<svg version="1.1" id="Layer_1" xmlns="http://www.w3.org/2000/svg" xmlns:xlink="http://www.w3.org/1999/xlink" x="0px" y="0px"
	 viewBox="0 0 471.8 512" style="enable-background:new 0 0 471.8 512;" xml:space="preserve">
<style type="text/css">
	.st0{clip-path:url(#SVGID_2_);fill:#DBC295;}
	.st1{clip-path:url(#SVGID_2_);fill:#194A50;}
</style>
<g>
	<defs>
		<rect id="SVGID_1_" width="471.8" height="512"/>
	</defs>
	<clipPath id="SVGID_2_">
		<use xlink:href="#SVGID_1_"  style="overflow:visible;"/>
	</clipPath>
	<path class="st0" d="M449.4,127.6h-5.2c-3.1-10.8-7.4-21.1-12.8-30.9l3.7-3.7c4.2-4.2,6.5-9.8,6.5-15.8c0-6-2.3-11.6-6.5-15.8
		l-24.6-24.5c-4.2-4.2-9.9-6.6-15.9-6.6c-6,0-11.6,2.3-15.8,6.6l-3.7,3.7c-9.8-5.5-20.1-9.8-30.9-12.8v-5.2
		c0-12.4-10.1-22.4-22.4-22.4H287c-12.4,0-22.4,10.1-22.4,22.4v5.2c-10.8,3.1-21.1,7.4-30.9,12.8l-3.7-3.7
		c-4.2-4.2-9.9-6.6-15.9-6.6c-6,0-11.6,2.3-15.8,6.6l-24.6,24.6c-4.2,4.2-6.5,9.8-6.5,15.8c0,6,2.3,11.6,6.5,15.8l3.7,3.7
		c-5.5,9.8-9.8,20.1-12.8,30.9h-5.2c-12.4,0-22.4,10.1-22.4,22.4v34.8c0,12.4,10.1,22.4,22.4,22.4h5.2c3.1,10.7,7.3,21.1,12.8,30.9
		l-3.7,3.7c-4.2,4.2-6.5,9.8-6.5,15.8c0,6,2.3,11.6,6.5,15.8l24.6,24.6c4.2,4.2,9.9,6.6,15.9,6.6h0c6,0,11.6-2.3,15.8-6.6l3.7-3.7
		c9.8,5.5,20.2,9.8,30.9,12.8v5.2c0,12.4,10.1,22.4,22.4,22.4h34.8c12.4,0,22.4-10.1,22.4-22.4v-5.2c10.8-3,21.1-7.3,30.9-12.8
		l3.7,3.7c4.2,4.2,9.9,6.6,15.9,6.6c6,0,11.6-2.3,15.8-6.6l24.6-24.6c4.2-4.2,6.5-9.8,6.5-15.8c0-6-2.3-11.6-6.5-15.8l-3.7-3.7
		c5.4-9.8,9.7-20.1,12.8-30.9h5.2c12.4,0,22.4-10.1,22.4-22.4V150C471.8,137.6,461.7,127.6,449.4,127.6 M324.2,312.4
		c0,1.3-1.1,2.4-2.4,2.4H287c-1.3,0-2.4-1.1-2.4-2.4v-13v-63c0-4.2-2.6-7.9-6.5-9.4c-26.9-10-44.9-35.8-44.9-64.4
		c0-22.6,11.3-43.8,30.1-56.7c0.8-0.6,1.6-1,2.2-1.4c0,1.3-0.1,2.5-0.2,3.2c-0.1,1-0.1,1.8-0.1,2.6v47.2c0,21.7,16.9,39.8,38.5,41.2
		c0.4,0,0.9,0,1.3,0c21.6-1.4,38.5-19.5,38.5-41.2v-47.2c0-0.8-0.1-1.6-0.1-2.6c0-0.6-0.1-1.9-0.2-3.2c0.7,0.4,1.4,0.9,2.2,1.4
		c18.9,12.9,30.1,34.1,30.1,56.7c0,28.5-18,54.4-44.9,64.4c-3.9,1.5-6.5,5.2-6.5,9.4v63L324.2,312.4L324.2,312.4z M451.8,184.8
		c0,1.3-1.1,2.4-2.4,2.4h-13c-4.7,0-8.7,3.2-9.8,7.8c-3.2,14-8.7,27.2-16.3,39.3c-2.5,4-1.9,9.1,1.4,12.4l9.2,9.2
		c0.6,0.6,0.7,1.3,0.7,1.7c0,0.4-0.1,1.1-0.7,1.7l-24.6,24.6c-0.6,0.6-1.2,0.7-1.7,0.7c-0.5,0-1.1-0.1-1.7-0.7l-9.2-9.2
		c-3.3-3.3-8.5-3.9-12.4-1.4c-8.5,5.4-17.6,9.7-27.1,12.9V243c31-14.4,51.4-45.9,51.4-80.4c0-29.2-14.5-56.6-38.8-73.2
		c-3.7-2.5-15-10.3-25-4.6c-9.7,5.6-8.8,18.7-8.3,24.3c0,0.5,0.1,0.9,0.1,1.1v47.2c0,10.9-8.4,20.1-19.2,21.2
		c-10.8-1.1-19.2-10.2-19.2-21.2l0-47.1c0-0.3,0-0.7,0.1-1.2c0.4-5.6,1.4-18.7-8.3-24.3c-9.9-5.7-21.2,2-25,4.6
		c-24.3,16.6-38.8,44-38.8,73.2c0,34.5,20.4,66,51.4,80.4v43.2c-9.5-3.2-18.6-7.5-27.1-12.9c-1.6-1-3.5-1.5-5.3-1.5
		c-2.6,0-5.1,1-7.1,2.9l-9.2,9.2c-0.6,0.6-1.2,0.7-1.7,0.7s-1.1-0.1-1.7-0.7l-24.6-24.6c-0.6-0.6-0.7-1.3-0.7-1.7s0.1-1.1,0.7-1.7
		l9.2-9.2c3.3-3.3,3.9-8.5,1.4-12.4c-7.7-12.2-13.2-25.4-16.3-39.3c-1-4.6-5.1-7.8-9.8-7.8h-13c-1.3,0-2.4-1.1-2.4-2.4V150
		c0-1.3,1.1-2.4,2.4-2.4h13c4.7,0,8.7-3.2,9.8-7.8c3.1-13.9,8.6-27.1,16.3-39.3c2.5-4,1.9-9.1-1.4-12.4l-9.2-9.2
		c-0.6-0.6-0.7-1.3-0.7-1.7c0-0.4,0.1-1.1,0.7-1.7l24.6-24.6c0.6-0.6,1.2-0.7,1.7-0.7c0.5,0,1.1,0.1,1.7,0.7l9.2,9.2
		c3.3,3.3,8.5,3.9,12.4,1.4c12.2-7.7,25.4-13.2,39.4-16.3c4.6-1,7.8-5.1,7.8-9.8v-13c0-1.3,1.1-2.4,2.4-2.4h34.8
		c1.3,0,2.4,1.1,2.4,2.4v13c0,4.7,3.2,8.7,7.8,9.8c14,3.2,27.2,8.6,39.3,16.3c4,2.5,9.1,1.9,12.4-1.4l9.2-9.2
		c0.6-0.6,1.2-0.7,1.7-0.7c0.5,0,1.1,0.1,1.7,0.7l24.6,24.6c0.6,0.6,0.7,1.3,0.7,1.7s-0.1,1.1-0.7,1.7l-9.2,9.2
		c-3.3,3.3-3.9,8.5-1.4,12.4c7.6,12.1,13.1,25.3,16.3,39.3c1,4.6,5.1,7.8,9.8,7.8h13c1.3,0,2.4,1.1,2.4,2.4L451.8,184.8L451.8,184.8
		z"/>
	<path class="st1" d="M362.7,440.3c-3.9,3.9-3.9,10.2,0,14.1c2,2,4.5,2.9,7.1,2.9c2.6,0,5.1-1,7.1-2.9l0,0c3.9-3.9,0-14.1-3.9-18
		C369,432.5,366.6,436.4,362.7,440.3"/>
	<path class="st1" d="M409,343.4l-79.4,40.8c-6.7-7-16.2-11.3-26.6-11.3h-54.4c-3,0-3.8-0.2-3.8-0.3c-0.4-0.2-1.8-1.5-3-2.6
		l-0.5-0.5c-44-41.4-81.2-38.8-123.5-22.1c-6.8,2.7-7,2.7-13.8,3l-12.3,0c-3.5-10.6-13.5-18.2-25.2-18.2h-40
		C11.9,332.2,0,344.2,0,358.8v105c0,14.6,11.9,26.5,26.5,26.5h40c11.7,0,21.7-7.6,25.2-18.2h22.5c2,0,2,0,4.3,0.7
		c0.8,0.2,1.9,0.5,3.2,0.9l103.5,27.7c4.6,1.2,8.7,2.4,12.8,3.6c13.3,3.8,24.4,7.1,36,7.1c13.1,0,26.9-4.1,44.9-16.2
		c0.1-0.1,0.2-0.1,0.3-0.2l19.8-14.1c4.5-3.2,5.5-9.5,2.3-13.9s-9.5-5.5-13.9-2.3l-19.6,14c-26.2,17.4-37.3,14.2-64.2,6.4
		c-4.1-1.2-8.4-2.4-13.2-3.7l-103.5-27.7c-1.2-0.3-2.2-0.6-2.9-0.8c-3.8-1.1-5.2-1.4-9.7-1.4H93.1v-81.6h10.8c0.1,0,0.3,0,0.4,0
		l0.6,0c8.4-0.4,10.7-0.6,20.3-4.4c37.1-14.7,65.8-16.4,102.4,18.1l0.5,0.5c6.3,5.9,9.9,8.3,20.5,8.3H303c6.4,0,11.9,3.5,14.9,8.8
		c0,0.1,0.1,0.1,0.1,0.2c1.3,2.4,2,5.1,2,8.1c0,9.4-7.6,17-17,17h-88.2c-5.5,0-10,4.5-10,10c0,5.5,4.5,10,10,10H303
		c20.4,0,37-16.6,37-37c0-2.8-0.3-5.5-0.9-8.1l79-40.6c7.5-3.8,17.7-3.4,22.8,4.8c4.5,7.3,2,16.9-5.7,22.5l-34.7,24.7
		c-4.5,3.2-5.5,9.4-2.3,13.9c2,2.7,5,4.2,8.2,4.2c2,0,4-0.6,5.8-1.9l34.7-24.7c16.5-11.7,21.3-32.9,11.2-49.2
		C448,339.4,427,334.2,409,343.4 M73.1,463.8c0,3.5-3,6.5-6.6,6.5h-40c-3.5,0-6.5-3-6.5-6.5v-105c0-3.6,2.9-6.6,6.5-6.6h40
		c3.6,0,6.6,3,6.6,6.6V463.8z"/>
</g>
</svg>
