<?xml version="1.0" encoding="utf-8"?>
<!-- Generator: Adobe Illustrator 22.0.1, SVG Export Plug-In . SVG Version: 6.00 Build 0)  -->
<svg version="1.1" id="Layer_1" xmlns="http://www.w3.org/2000/svg" xmlns:xlink="http://www.w3.org/1999/xlink" x="0px" y="0px"
	 viewBox="0 0 360 360" style="enable-background:new 0 0 360 360;" xml:space="preserve">
<style type="text/css">
	.st0{clip-path:url(#SVGID_2_);fill:#DBC295;}
	.st1{clip-path:url(#SVGID_2_);fill:#1B4B50;}
</style>
<g>
	<defs>
		<rect id="SVGID_1_" width="360" height="360"/>
	</defs>
	<clipPath id="SVGID_2_">
		<use xlink:href="#SVGID_1_"  style="overflow:visible;"/>
	</clipPath>
	<path class="st0" d="M354,0H174c-3.3,0-6,2.7-6,6v97.8l-18.3-21.3C144,75.8,135.7,72,127,72h-22.3c4.6-5.1,7.7-11.3,8.8-18h6.5
		c2.1,0,4-1.1,5.1-2.9c1.1-1.8,1.2-4,0.3-5.8L114,22.6V18c0-9.9-8.1-18-18-18H60c-9.9,0-18,8.1-18,18v28.7c0,9.7,3.7,18.6,9.6,25.3
		H42c-16.5,0-30,13.5-30,30v54c0,6.8,2.3,13,6.2,18H6c-3.3,0-6,2.7-6,6v24c0,3.3,2.7,6,6,6h6v24h12v-24h180v12h12v-12h138
		c3.3,0,6-2.7,6-6V6C360,2.7,357.3,0,354,0 M54,18c0-3.3,2.7-6,6-6h36c3.3,0,6,2.7,6,6v6c0,0.9,0.2,1.9,0.6,2.7l7.7,15.3H108
		c-3.3,0-6,2.7-6,6c0,6.8-2.9,13.2-7.9,17.8c-5.1,4.6-11.7,6.8-18.5,6.1C63.5,70.7,54,59.7,54,46.7V18z M86.3,84L78,100.6L69.7,84
		H86.3z M24,156v-54c0-9.9,8.1-18,18-18h14.3l16.3,32.7c1,2,3.1,3.3,5.4,3.3s4.4-1.3,5.4-3.3L99.7,84H127c5.3,0,10.2,2.3,13.7,6.3
		l28.8,33.6c1.1,1.3,2.7,2,4.3,2.1c1.7,0.1,3.3-0.6,4.5-1.8L210,92.5l15.5,15.5l-38.8,38.8c-7,7-18.4,7-25.5,0l-19-19
		c-1.7-1.7-4.3-2.2-6.5-1.3c-2.2,0.9-3.7,3.1-3.7,5.5v42h-30v-18c0-9.9-8.1-18-18-18H60v-12H48v18c0,3.3,2.7,6,6,6h30
		c3.3,0,6,2.7,6,6v18H42C32.1,174,24,165.9,24,156 M144,174v-27.5l8.8,8.8c4.3,4.3,9.6,7,15.2,8.1V174H144z M216,198H12v-12h204V198
		z M348,198H228v-18c0-3.3-2.7-6-6-6h-42v-10.6c5.6-1.1,10.9-3.8,15.2-8.1l43-43c2.3-2.3,2.3-6.1,0-8.5L224.5,90l31.8-31.8l-8.5-8.5
		L216,81.5l-1.8-1.8c-2.3-2.3-6.1-2.3-8.5,0L180,105.5V12h168V198z"/>
	<path class="st0" d="M252,36.7l33.3,16.7c0.8,0.4,1.8,0.6,2.7,0.6s1.8-0.2,2.7-0.6l36-18l-5.4-10.7L288,41.3l-33.3-16.7
		c-1.7-0.8-3.7-0.8-5.4,0l-36,18l5.4,10.7L252,36.7z"/>
	<rect x="258" y="90" class="st0" width="72" height="12"/>
	<rect x="258" y="114" class="st0" width="72" height="12"/>
	<rect x="258" y="138" class="st0" width="72" height="12"/>
	<rect x="258" y="162" class="st0" width="72" height="12"/>
	<path class="st1" d="M18,318v36c0,3.3,2.7,6,6,6h60c3.3,0,6-2.7,6-6v-36c0-13-7-24.4-17.3-30.7C79.5,281.8,84,273.4,84,264
		c0-16.5-13.5-30-30-30s-30,13.5-30,30c0,9.4,4.5,17.8,11.3,23.3C25,293.6,18,305,18,318 M36,264c0-9.9,8.1-18,18-18s18,8.1,18,18
		s-8.1,18-18,18S36,273.9,36,264 M30,318c0-13.2,10.8-24,24-24s24,10.8,24,24v30H30V318z"/>
	<path class="st1" d="M102,318v36c0,3.3,2.7,6,6,6h60c3.3,0,6-2.7,6-6v-36c0-13-7-24.4-17.3-30.7c6.8-5.5,11.3-13.8,11.3-23.3
		c0-16.5-13.5-30-30-30s-30,13.5-30,30c0,9.4,4.5,17.8,11.3,23.3C109,293.6,102,305,102,318 M120,264c0-9.9,8.1-18,18-18
		c9.9,0,18,8.1,18,18s-8.1,18-18,18C128.1,282,120,273.9,120,264 M114,318c0-13.2,10.8-24,24-24s24,10.8,24,24v30h-48V318z"/>
	<path class="st1" d="M186,318v36c0,3.3,2.7,6,6,6h60c3.3,0,6-2.7,6-6v-36c0-13-7-24.4-17.3-30.7c6.8-5.5,11.3-13.8,11.3-23.3
		c0-16.5-13.5-30-30-30s-30,13.5-30,30c0,9.4,4.5,17.8,11.3,23.3C193,293.6,186,305,186,318 M204,264c0-9.9,8.1-18,18-18
		c9.9,0,18,8.1,18,18s-8.1,18-18,18C212.1,282,204,273.9,204,264 M198,318c0-13.2,10.8-24,24-24c13.2,0,24,10.8,24,24v30h-48V318z"
		/>
	<path class="st1" d="M270,318v36c0,3.3,2.7,6,6,6h60c3.3,0,6-2.7,6-6v-36c0-13-7-24.4-17.3-30.7c6.8-5.5,11.3-13.8,11.3-23.3
		c0-16.5-13.5-30-30-30c-16.5,0-30,13.5-30,30c0,9.4,4.5,17.8,11.3,23.3C277,293.6,270,305,270,318 M288,264c0-9.9,8.1-18,18-18
		c9.9,0,18,8.1,18,18s-8.1,18-18,18C296.1,282,288,273.9,288,264 M282,318c0-13.2,10.8-24,24-24c13.2,0,24,10.8,24,24v30h-48V318z"
		/>
</g>
</svg>
