<?xml version="1.0" encoding="utf-8"?>
<!-- Generator: Adobe Illustrator 22.0.1, SVG Export Plug-In . SVG Version: 6.00 Build 0)  -->
<svg version="1.1" id="Capa_1" xmlns="http://www.w3.org/2000/svg" xmlns:xlink="http://www.w3.org/1999/xlink" x="0px" y="0px"
	 viewBox="0 0 145.9 104.4" style="enable-background:new 0 0 145.9 104.4;" xml:space="preserve">
<style type="text/css">
	.st0{fill:#DBC295;}
	.st1{fill:#194A50;}
</style>
<g>
	<polygon class="st0" points="85.8,69.6 103.1,52.2 85.8,34.8 75.5,45.1 82.6,52.2 75.5,59.3 72.9,61.8 62.7,72.1 60.1,74.7 
		53,81.8 23.4,52.2 53,22.6 60.1,29.7 70.4,19.4 53,2 2.9,52.2 53,102.3 70.4,85 72.9,82.4 83.2,72.1 	"/>
	<polygon class="st1" points="92.9,2 75.5,19.4 72.9,22 62.7,32.3 60.1,34.8 42.7,52.2 60.1,69.6 70.4,59.3 63.3,52.2 70.4,45.1 
		72.9,42.5 83.2,32.3 85.8,29.7 92.9,22.6 122.4,52.2 92.9,81.8 85.8,74.7 75.5,85 92.9,102.3 143,52.2 	"/>
</g>
</svg>
