<?xml version="1.0" encoding="utf-8"?>
<!-- Generator: Adobe Illustrator 22.0.1, SVG Export Plug-In . SVG Version: 6.00 Build 0)  -->
<svg version="1.1" id="Capa_1" xmlns="http://www.w3.org/2000/svg" xmlns:xlink="http://www.w3.org/1999/xlink" x="0px" y="0px"
	 viewBox="0 0 512 393" style="enable-background:new 0 0 512 393;" xml:space="preserve">
<path d="M464,5H48C21.5,5,0,26.5,0,53v288c0,26.5,21.5,48,48,48h416c26.5,0,48-21.5,48-48V53C512,26.5,490.5,5,464,5z M464,37
	c2.2,0,4.2,0.5,6.1,1.2L256,223.8L41.9,38.2c1.9-0.8,4-1.2,6.1-1.2L464,37z M464,357H48c-8.8,0-16-7.2-16-16V72l213.5,185
	c3,2.6,6.8,3.9,10.5,3.9s7.5-1.3,10.5-3.9L480,72v269C480,349.8,472.8,357,464,357z"/>
</svg>
