<?xml version="1.0" encoding="utf-8"?>
<!-- Generator: Adobe Illustrator 22.0.1, SVG Export Plug-In . SVG Version: 6.00 Build 0)  -->
<svg version="1.1" id="Layer_1" xmlns="http://www.w3.org/2000/svg" xmlns:xlink="http://www.w3.org/1999/xlink" x="0px" y="0px"
	 viewBox="0 0 320.7 268.1" style="enable-background:new 0 0 320.7 268.1;" xml:space="preserve">
<style type="text/css">
	.st0{fill:#FFFFFF;}
	.st1{clip-path:url(#SVGID_2_);fill:#FFFFFF;}
	.st2{clip-path:url(#SVGID_2_);fill:#D8A28C;}
	.st3{clip-path:url(#SVGID_2_);}
	.st4{font-family:'Gotham-Book';}
	.st5{font-size:16.1192px;}
	.st6{letter-spacing:3;}
</style>
<polygon class="st0" points="56.4,146.5 49.3,181 39.8,146.5 29.2,146.5 19.9,181 12.6,146.5 0,146.5 12.3,194.7 26.8,194.7 
	34.5,166.5 42.2,194.7 56.9,194.7 69,146.5 "/>
<g>
	<defs>
		<rect id="SVGID_1_" width="320.7" height="268.1"/>
	</defs>
	<clipPath id="SVGID_2_">
		<use xlink:href="#SVGID_1_"  style="overflow:visible;"/>
	</clipPath>
	<path class="st1" d="M79.6,153c5-4.9,11.1-7.3,18.2-7.3c7.2,0,13.2,2.4,18.2,7.3c5,4.8,7.5,10.7,7.5,17.7c0,6.9-2.5,12.8-7.5,17.7
		c-5,4.9-11.1,7.3-18.2,7.3c-7.2,0-13.2-2.4-18.2-7.3c-5-4.9-7.5-10.8-7.5-17.7C72.1,163.8,74.6,157.9,79.6,153 M107.9,160.2
		c-2.7-2.8-6.1-4.3-10-4.3c-3.9,0-7.3,1.4-10,4.3c-2.8,2.9-4.1,6.3-4.1,10.4c0,4.1,1.4,7.5,4.1,10.4s6.1,4.3,10,4.3
		c3.9,0,7.3-1.4,10-4.3c2.7-2.9,4.1-6.4,4.1-10.4C112,166.6,110.6,163.1,107.9,160.2"/>
	<path class="st1" d="M158.8,166.9h22.5v9.8c-0.4,3-1.2,5.7-2.5,8c-1.3,2.3-2.8,4.1-4.6,5.4s-3.6,2.4-5.2,3.2
		c-1.7,0.8-3.5,1.4-5.4,1.7c-1.9,0.3-3.3,0.5-4.1,0.6c-0.8,0.1-1.5,0.1-2.2,0.1c-7.2,0-13.2-2.4-18.2-7.3c-5-4.9-7.5-10.8-7.5-17.7
		c0-6.9,2.5-12.8,7.4-17.7c4.9-4.9,11-7.3,18.3-7.3c3.1,0,5.9,0.4,8.6,1.2c2.7,0.8,4.9,1.9,6.5,3.1c1.7,1.2,3.1,2.4,4.4,3.7
		c1.2,1.2,2.1,2.3,2.6,3.1l0.7,1.3l-8.5,5.7c-2.9-4.8-7.7-7.4-14.4-7.8c-3.9,0-7.3,1.4-10,4.3c-2.8,2.9-4.1,6.3-4.1,10.4
		c0,4.1,1.4,7.5,4.1,10.4c2.8,2.9,6.1,4.3,10,4.3c2.2,0,4.2-0.3,5.8-0.9c1.7-0.6,2.9-1.3,3.6-2.2c0.7-0.9,1.4-1.7,1.8-2.6
		c0.5-0.9,0.7-1.6,0.8-2.2l0.1-0.9h-10.6V166.9z"/>
	<path class="st1" d="M215.9,166.9h22.5v9.8c-0.4,3-1.2,5.7-2.5,8c-1.3,2.3-2.8,4.1-4.6,5.4c-1.8,1.3-3.6,2.4-5.2,3.2
		c-1.7,0.8-3.5,1.4-5.4,1.7c-1.9,0.3-3.3,0.5-4.1,0.6c-0.8,0.1-1.5,0.1-2.2,0.1c-7.2,0-13.2-2.4-18.2-7.3c-5-4.9-7.5-10.8-7.5-17.7
		c0-6.9,2.5-12.8,7.4-17.7c4.9-4.9,11-7.3,18.3-7.3c3.1,0,5.9,0.4,8.6,1.2c2.7,0.8,4.9,1.9,6.5,3.1c1.7,1.2,3.1,2.4,4.4,3.7
		c1.2,1.2,2.1,2.3,2.6,3.1l0.7,1.3l-8.5,5.7c-2.9-4.8-7.7-7.4-14.4-7.8c-3.9,0-7.3,1.4-10,4.3c-2.8,2.9-4.1,6.3-4.1,10.4
		c0,4.1,1.4,7.5,4.1,10.4c2.8,2.9,6.1,4.3,10,4.3c2.2,0,4.2-0.3,5.8-0.9c1.7-0.6,2.9-1.3,3.6-2.2c0.7-0.9,1.4-1.7,1.8-2.6
		c0.5-0.9,0.7-1.6,0.8-2.2l0.1-0.9h-10.6V166.9z"/>
	<polygon class="st1" points="257.8,146.5 257.8,184.5 280.3,184.5 280.3,194.7 246.7,194.7 246.7,146.5 	"/>
	<polygon class="st1" points="298.2,184.5 320.7,184.5 320.7,194.7 287.1,194.7 287.1,146.5 320.7,146.5 320.7,156.8 298.2,156.8 
		298.2,165.9 318.9,165.9 318.9,176.2 298.2,176.2 	"/>
	<path class="st1" d="M44.8,228.8c-3.4,0-6.2-1.2-8.6-3.5c-2.4-2.3-3.5-5.1-3.5-8.4c0-3.3,1.2-6.1,3.5-8.4c2.3-2.3,5.2-3.4,8.6-3.4
		c2.7,0,5.2,0.8,7.3,2.4c2.1,1.6,3.6,3.6,4.4,6.1h-4.4c-0.6-1.5-1.6-2.6-2.9-3.5c-1.3-0.9-2.8-1.3-4.4-1.3c-2.3,0-4.2,0.8-5.8,2.4
		c-1.6,1.6-2.4,3.5-2.4,5.8c0,2.2,0.8,4.2,2.4,5.8c1.6,1.6,3.6,2.4,5.8,2.4c1.6,0,3.1-0.4,4.4-1.3c1.3-0.9,2.3-2,2.9-3.5h4.4
		c-0.8,2.5-2.2,4.5-4.4,6.1C50,228,47.5,228.8,44.8,228.8"/>
	<path class="st1" d="M67.7,208.6c2.3-2.3,5.2-3.4,8.6-3.4c3.4,0,6.2,1.1,8.6,3.4c2.3,2.3,3.5,5.1,3.5,8.4c0,3.3-1.2,6.1-3.5,8.4
		c-2.3,2.3-5.2,3.5-8.6,3.5c-3.4,0-6.2-1.2-8.6-3.5c-2.3-2.3-3.5-5.1-3.5-8.4C64.1,213.7,65.3,210.9,67.7,208.6 M70.4,222.8
		c1.6,1.6,3.5,2.4,5.8,2.4c2.2,0,4.2-0.8,5.8-2.4c1.6-1.6,2.4-3.5,2.4-5.8c0-2.3-0.8-4.3-2.4-5.8c-1.6-1.6-3.5-2.4-5.8-2.4
		c-2.3,0-4.2,0.8-5.8,2.4c-1.6,1.6-2.4,3.5-2.4,5.8C68,219.2,68.8,221.1,70.4,222.8"/>
	<polygon class="st1" points="113,221.7 113,205.5 116.8,205.5 116.8,228.4 113.2,228.4 100.9,212.2 100.9,228.4 97,228.4 97,205.5 
		100.7,205.5 	"/>
	<path class="st1" d="M133.8,228.8c-4,0-6.9-1.4-8.9-4.3l2.8-2.2c0.6,0.7,1.4,1.4,2.5,2c1.1,0.6,2.4,0.9,3.8,0.9
		c0.9,0,1.6-0.1,2.3-0.4c0.6-0.2,1.1-0.5,1.4-0.9c0.3-0.4,0.5-0.7,0.6-1c0.1-0.3,0.2-0.5,0.2-0.7c0-0.8-0.4-1.4-1.3-1.9
		c-0.9-0.5-2-1-3.3-1.4c-1.3-0.4-2.5-0.8-3.8-1.4c-1.3-0.5-2.3-1.3-3.2-2.4c-0.9-1.1-1.3-2.4-1.3-3.9c0-0.6,0.1-1.2,0.3-1.9
		c0.2-0.6,0.6-1.3,1.2-2c0.5-0.7,1.4-1.2,2.5-1.7c1.1-0.4,2.4-0.6,3.9-0.6c1.5,0,2.9,0.2,4.1,0.8c1.2,0.5,2.1,1,2.6,1.5
		c0.5,0.5,1,1,1.3,1.5l-2.8,2.1c-1.3-1.5-3.1-2.2-5.6-2.2c-1,0-1.9,0.3-2.6,0.8c-0.8,0.6-1.2,1.2-1.2,2c0,0.8,0.3,1.5,1,2
		c0.6,0.6,1.5,1,2.4,1.3c1,0.3,2,0.6,3.1,1c1.1,0.4,2.2,0.8,3.1,1.3c1,0.4,1.8,1.1,2.4,2.1c0.6,0.9,1,2,1,3.3c0,0.6-0.1,1.2-0.4,1.9
		c-0.3,0.7-0.7,1.3-1.3,2c-0.6,0.7-1.5,1.2-2.7,1.7C136.8,228.6,135.4,228.8,133.8,228.8"/>
	<path class="st1" d="M159.8,228.8c-0.1,0-0.3,0-0.5,0c-0.2,0-0.7-0.1-1.3-0.2c-0.6-0.1-1.3-0.3-1.9-0.5c-0.6-0.2-1.2-0.6-2-1
		c-0.7-0.5-1.3-1-1.8-1.6c-0.5-0.6-0.9-1.4-1.3-2.5c-0.4-1-0.5-2.2-0.5-3.4v-14h3.8v14c0,0.3,0,0.6,0.1,1c0,0.3,0.2,0.8,0.4,1.4
		c0.2,0.6,0.5,1.1,0.8,1.6c0.4,0.5,0.9,0.9,1.6,1.2c0.7,0.3,1.6,0.5,2.6,0.5c1,0,1.8-0.2,2.6-0.5c0.7-0.3,1.3-0.7,1.6-1.2
		c0.4-0.5,0.6-1,0.8-1.6c0.2-0.6,0.3-1.1,0.4-1.4c0-0.3,0.1-0.7,0.1-1v-14h3.8v14c0,1.3-0.2,2.4-0.5,3.4c-0.3,1-0.8,1.9-1.3,2.5
		c-0.6,0.6-1.2,1.2-1.8,1.6c-0.7,0.5-1.3,0.8-2,1c-0.7,0.2-1.3,0.4-1.8,0.5c-0.6,0.1-1,0.2-1.3,0.2L159.8,228.8z"/>
	<polygon class="st1" points="181.9,205.5 181.9,224.8 193.3,224.8 193.3,228.4 178,228.4 178,205.5 	"/>
	<polygon class="st1" points="203.5,209.2 196.1,209.2 196.1,205.5 214.8,205.5 214.8,209.2 207.4,209.2 207.4,228.4 203.5,228.4 	
		"/>
	<rect x="222.9" y="205.5" class="st1" width="3.9" height="22.9"/>
	<polygon class="st1" points="251.9,221.7 251.9,205.5 255.7,205.5 255.7,228.4 252.1,228.4 239.8,212.2 239.8,228.4 235.9,228.4 
		235.9,205.5 239.6,205.5 	"/>
	<path class="st1" d="M278.5,215.6h9.5v3.7c-0.3,1.7-0.9,3.2-1.7,4.5c-0.8,1.3-1.7,2.2-2.6,2.8c-0.9,0.6-1.9,1.1-3,1.5
		c-1.1,0.4-2,0.6-2.5,0.6c-0.6,0.1-1,0.1-1.5,0.1c-3.4,0-6.3-1.2-8.6-3.5c-2.3-2.3-3.5-5.1-3.5-8.4c0-3.3,1.2-6.1,3.5-8.4
		c2.3-2.3,5.2-3.4,8.6-3.4c1.5,0,2.9,0.2,4.1,0.6c1.3,0.4,2.3,0.9,3.2,1.5c0.8,0.6,1.5,1.2,2,1.6c0.5,0.5,0.9,1,1.2,1.4l-2.9,2
		c-1.6-2.4-4.1-3.5-7.6-3.5c-2.3,0-4.2,0.8-5.8,2.4c-1.6,1.6-2.4,3.5-2.4,5.8c0,2.3,0.8,4.2,2.4,5.8c1.6,1.6,3.6,2.4,5.8,2.4
		c1.3,0,2.4-0.2,3.4-0.6c1-0.4,1.7-0.9,2.2-1.5c0.5-0.6,0.9-1.2,1.2-1.8c0.3-0.6,0.5-1.1,0.5-1.5l0.1-0.6h-5.5V215.6z"/>
	<path class="st2" d="M87.5,20.8c0.9-2.2,2.2-4.6,4.1-7.3c5.8-7.8,16.7-10.6,24.9-10.6c2.2,0,4.3,0.2,6.2,0.6
		c7.2,1.4,16.6,3.7,23.5,6.1c-3.3,1.8-6.5,3.8-9.5,5.9c-2.2,1.4-4.1,2.8-5.7,4.1c-4.7-1.4-13.8-3.2-23.1-3.2
		C99.4,16.3,92.5,17.8,87.5,20.8"/>
	<path class="st2" d="M83.8,35.2c1.3-2.9,3.2-5.4,5.8-7.4c3.8-2.9,10.2-4.5,18.6-4.5c6.1,0,12.2,0.8,16.6,1.8c-1,0.9-2,1.9-3,2.8
		c-2.3,2.2-4.2,4.1-5.7,5.8c-3.3-0.8-9.7-2.2-16.4-2.2c-5.9,0-10.8,1-14.8,3C84.6,34.7,84.2,35,83.8,35.2"/>
	<path class="st2" d="M80.8,64.7c-0.8-3.8-1-8-0.4-11.7c1-5.9,3.7-10.3,7.7-12.3c2.9-1.5,6.8-2.2,11.6-2.2c4.2,0,8.4,0.6,11.5,1.2
		c-2.5,3.3-4.7,6.7-5.9,8.7c-0.7,0-1.4-0.1-2.1-0.1c-13.5,0-18.9,9-19.8,10.8L83,59.8l0,0c-0.3,0.6-0.6,1.2-0.9,1.8
		C81.6,62.7,81.1,63.7,80.8,64.7"/>
	<path class="st2" d="M95.9,129.7c-2.9,0-5.8-2.2-5.8-7.2c0-1.7,0.5-3.2,1.2-4.5c3.4,2.9,7.3,5.6,11.6,8c-3,2.3-5.7,3.6-6.9,3.7
		L95.9,129.7z"/>
	<path class="st2" d="M156.6,132.1c-39.9,0-65.4-18.7-70.8-31.9c-1.3-3.2-2-6.5-2-10c8.3,14.5,27.8,28.6,56.3,30.6
		c2.5,0.2,5.1,0.3,7.7,0.3c25.4,0,48.8-7.9,57-10.9c3,2.4,6,4.9,9,7.3c-10.5,5.9-29.7,14.2-54.9,14.7
		C158.1,132.1,157.4,132.1,156.6,132.1L156.6,132.1z"/>
	<path class="st2" d="M147.7,114.1c-2.4,0-4.8-0.1-7-0.2C107.4,111.6,90.3,92.4,87,80c-1.4-5.1-0.9-9.2,0.2-12.4
		c0.5,0.9,1,1.8,1.5,2.8c8.4,14.4,27.3,31.6,52.8,32.8c2.5,0.1,5,0.2,7.4,0.2c17.8,0,31.6-3,40.2-5.6c0.7,0.5,1.3,0.9,1.9,1.4
		c2,1.5,4.7,3.6,7.4,5.9C189.2,108.1,168.9,114.1,147.7,114.1"/>
	<path class="st2" d="M117.4,63.4c-3.7-2.4-6.6-4.7-8.7-7c6.4-11.8,20.8-32.1,49.1-45C174,4.1,190.8,0,205.3,0
		c9,0,16.8,1.5,23.1,4.5c6.9,3.3,11.5,8.4,13.1,14.8c0.2,0.7,0.4,1.4,0.5,2.1c0.1,0.8,0.1,1.7,0.1,2.6c-1.9-1.9-3.9-3.7-6.2-5.2
		c-4.8-3.3-15.2-8.9-30-8.9c-9.8,0-20,2.4-30.3,7.3C148.7,29.6,128,51,117.4,63.4"/>
	<path class="st2" d="M136.2,72.7c-4.3-1.6-8.6-3.5-12.7-5.7c10.3-12,30-31.9,55-43.6c9.4-4.4,18.6-6.6,27.4-6.6
		c12.9,0,21.9,4.8,26,7.7c3.5,2.4,6.4,5.3,8.5,8.3c-0.3,0.9-0.8,1.9-1.2,2.8c-1.2-1.5-2.6-2.8-4.3-4c-4.3-3-9.8-4.5-16.5-4.5
		c-10.8,0-23.8,4.1-36.5,11.6C165.7,48.3,148.2,62.3,136.2,72.7"/>
	<path class="st2" d="M163.1,78c-6-0.1-12.5-1.1-19.1-2.9c11.4-9.6,26.9-21.8,41.4-30.4c11.7-6.9,23.4-10.7,32.9-10.7
		c5.2,0,9.4,1.1,12.6,3.3c1.7,1.1,3,2.6,4,4.4c-0.9,1-1.8,1.9-2.8,2.9h-0.1C202.9,44.7,168,73.8,163.1,78"/>
	<path class="st2" d="M148.7,96.4c-2.3,0-4.6-0.1-7-0.2c-22.8-1-39.6-16.4-47.1-29.3c-1.5-2.5-2.6-5-3.3-7.2
		c1.8-1.6,4.6-3.3,8.4-3.9c2.6,5.2,8.2,10.4,16.9,15.4C131.7,80,149,85,164,85c0.4,0,0.8,0,1.2,0c3.1,1.4,9.4,4.3,15.6,7.7
		C173,94.6,162,96.4,148.7,96.4"/>
	<path class="st2" d="M255.9,72.3c0.6,0.9,1.1,1.7,1.6,2.5c2-4.6,2.5-8.2,2.4-10.8C258.6,67.2,257.2,70.1,255.9,72.3"/>
	<path class="st2" d="M253.6,66.1c-1-1.1-2.2-2.3-3.4-3.5c-0.3-0.2-0.5-0.5-0.8-0.7c3.2-3.2,6-7.5,8-12.3c0.1,1.9,0,3.9-0.4,6
		C256.5,59,255.3,62.5,253.6,66.1"/>
	<path class="st2" d="M244.1,57.4c-2.8-2.1-5.8-4.1-9-6c4.2-3.5,9.7-9.4,12.3-17.6c1.7-5.5,1.9-10.3,1.4-14c2.2,2.1,4.2,5.2,4.8,9.8
		C255.2,40.2,250.1,51.9,244.1,57.4"/>
	<path class="st2" d="M253.7,90.9c-1.1-1.8-2.5-3.6-4-5.5C237.9,70.9,221.3,61,211.8,56c3.9-1.5,7.5-2.6,11-3.3
		c3.3,1.6,14.3,7,22.7,15c10.3,9.8,10.1,15.7,10,18.3C255.4,87.5,254.6,89.4,253.7,90.9"/>
	<path class="st2" d="M247.1,109.1c-3.9-4.4-9.9-9.9-18.7-17.9c-11.5-10.5-26.3-20.1-35.6-25.8c3.6-2.2,7.2-4.1,10.6-5.8
		c7.2,3.3,27.4,13.7,40.9,30.2c5.9,7.2,8.2,13,6.5,16.3C250.1,107.6,248.6,108.5,247.1,109.1"/>
	<path class="st2" d="M240.8,125.8c-1.3,0-2.7-0.3-4.4-0.8c-4.3-1.5-17.7-12.5-27.5-20.5c-5.3-4.4-10.3-8.5-13.8-11
		c-7.1-5.2-17.5-10.4-23.8-13.3c3.4-2.7,8.6-6.6,14.8-10.7c9.2,5.5,25.2,15.7,37.5,26.9c16.9,15.3,22.7,20.9,21.9,25.3
		c-0.3,1.8-1,2.9-2.1,3.6C242.8,125.6,241.9,125.8,240.8,125.8"/>
	<g class="st3">
		<text transform="matrix(1 0 0 1 34.0254 265.3864)"><tspan x="0" y="0" class="st0 st4 st5 st6">BU</tspan><tspan x="30.3" y="0" class="st0 st4 st5 st6">S</tspan><tspan x="43.8" y="0" class="st0 st4 st5 st6">IN</tspan><tspan x="67.7" y="0" class="st0 st4 st5 st6">E</tspan><tspan x="81.7" y="0" class="st0 st4 st5 st6">S</tspan><tspan x="95.1" y="0" class="st0 st4 st5 st6">S</tspan><tspan x="108.6" y="0" class="st0 st4 st5 st6">,</tspan><tspan x="115.8" y="0" class="st0 st4 st5 st6"> BUT SI</tspan><tspan x="197.4" y="0" class="st0 st4 st5 st6">M</tspan><tspan x="214.6" y="0" class="st0 st4 st5 st6">PL</tspan><tspan x="241.8" y="0" class="st0 st4 st5">E</tspan></text>
	</g>
	<rect y="239.8" class="st1" width="320.7" height="2"/>
</g>
</svg>
