<?xml version="1.0" encoding="utf-8"?>
<!-- Generator: Adobe Illustrator 22.0.1, SVG Export Plug-In . SVG Version: 6.00 Build 0)  -->
<svg version="1.1" id="Layer_1" xmlns="http://www.w3.org/2000/svg" xmlns:xlink="http://www.w3.org/1999/xlink" x="0px" y="0px"
	 viewBox="0 0 524.8 137.7" style="enable-background:new 0 0 524.8 137.7;" xml:space="preserve">
<style type="text/css">
	.st0{fill:#194A50;}
	.st1{fill:#DBC295;}
	.st2{fill:#D8A28C;}
	.st3{font-family:'Gotham-Book';}
	.st4{font-size:16.1192px;}
</style>
<g>
	<g>
		<path class="st0" d="M8.2,25c0.9-2.2,2.2-4.6,4.2-7.3C18.2,9.9,29.1,7.1,37.3,7.1c2.2,0,4.3,0.2,6.2,0.6
			c7.2,1.4,16.6,3.6,23.5,6.1c-3.3,1.8-6.5,3.8-9.5,5.9c-2.2,1.4-4.1,2.8-5.7,4.1c-4.7-1.4-13.8-3.2-23.1-3.2
			C20.1,20.6,13.2,22.1,8.2,25"/>
		<path class="st1" d="M4.5,39.5c1.3-2.9,3.2-5.4,5.8-7.4c3.8-3,10.2-4.5,18.6-4.5c6.1,0,12.2,0.8,16.6,1.8c-1,0.9-2,1.9-3,2.8
			c-2.3,2.2-4.2,4.1-5.7,5.8c-3.3-0.8-9.7-2.2-16.4-2.2c-5.9,0-10.8,1-14.8,3C5.3,39,4.9,39.2,4.5,39.5"/>
		<path class="st2" d="M1.5,69c-0.8-3.8-1-8-0.4-11.7C2,51.4,4.8,47,8.8,45c2.9-1.5,6.8-2.2,11.6-2.2c4.2,0,8.4,0.6,11.5,1.2
			c-2.5,3.3-4.7,6.7-5.9,8.7c-0.7,0-1.4-0.1-2.1-0.1c-13.5,0-18.9,9-19.8,10.8l-0.3,0.7l0,0c-0.3,0.6-0.6,1.2-0.9,1.8
			C2.3,66.9,1.8,67.9,1.5,69"/>
		<path class="st1" d="M16.6,133.9c-2.9,0-5.8-2.2-5.8-7.3c0-1.6,0.5-3.2,1.2-4.5c3.4,2.9,7.3,5.6,11.6,8.1c-3,2.3-5.7,3.6-6.8,3.7
			H16.6z"/>
		<path class="st0" d="M77.3,136.4c-39.9,0-65.4-18.7-70.8-31.9c-1.3-3.2-2-6.5-2-10c8.3,14.5,27.8,28.7,56.3,30.6
			c2.5,0.2,5.1,0.3,7.7,0.3c25.4,0,48.8-7.9,57-10.9c3,2.4,6,4.9,9,7.3c-10.5,5.9-29.7,14.2-54.9,14.7
			C78.8,136.4,78.1,136.4,77.3,136.4L77.3,136.4z"/>
		<path class="st1" d="M68.4,118.3c-2.4,0-4.8-0.1-7.1-0.2C28.1,115.9,11,96.6,7.7,84.2C6.3,79.2,6.7,75,7.8,71.8
			c0.5,0.9,1,1.8,1.5,2.8c8.4,14.4,27.3,31.6,52.8,32.8c2.5,0.1,5,0.2,7.4,0.2c17.8,0,31.6-3,40.3-5.6c0.7,0.5,1.3,0.9,1.9,1.3
			c2,1.5,4.7,3.6,7.4,5.9C109.9,112.4,89.6,118.3,68.4,118.3"/>
		<path class="st0" d="M38.1,67.7c-3.7-2.4-6.6-4.7-8.7-7c6.4-11.8,20.8-32.1,49.1-45c16.2-7.4,33-11.4,47.4-11.4
			c9,0,16.8,1.5,23.1,4.5c6.9,3.3,11.5,8.4,13.1,14.8c0.2,0.7,0.4,1.4,0.5,2.1c0.1,0.8,0.1,1.7,0.1,2.6c-1.9-1.9-3.9-3.7-6.2-5.2
			c-4.8-3.3-15.2-8.9-30-8.9c-9.8,0-20,2.4-30.3,7.3C69.4,33.9,48.7,55.2,38.1,67.7"/>
		<path class="st1" d="M56.9,76.9c-4.3-1.6-8.6-3.5-12.7-5.7c10.3-12,29.9-31.9,55.1-43.6c9.4-4.4,18.6-6.6,27.4-6.6
			c12.9,0,21.9,4.8,26,7.7c3.5,2.4,6.4,5.3,8.5,8.3c-0.3,0.9-0.8,1.9-1.2,2.8c-1.2-1.5-2.6-2.8-4.3-4c-4.3-3-9.8-4.5-16.5-4.5
			c-10.9,0-23.8,4.1-36.5,11.6C86.4,52.6,68.9,66.6,56.9,76.9"/>
		<path class="st2" d="M83.8,82.3c-6-0.1-12.5-1.1-19.1-2.9c11.4-9.6,26.9-21.8,41.4-30.4c11.7-6.9,23.4-10.7,32.9-10.7
			c5.2,0,9.4,1.1,12.6,3.3c1.7,1.2,3,2.6,4,4.4c-0.9,1-1.8,1.9-2.8,2.9h-0.1C123.6,48.9,88.7,78.1,83.8,82.3"/>
		<path class="st2" d="M69.4,100.6c-2.3,0-4.6-0.1-7-0.2c-22.8-1-39.6-16.4-47.1-29.3c-1.5-2.5-2.6-5-3.3-7.2
			c1.8-1.6,4.6-3.3,8.4-3.9c2.6,5.2,8.2,10.4,16.9,15.5c15.1,8.8,32.3,13.9,47.4,13.9c0.4,0,0.8,0,1.2,0c3.1,1.4,9.4,4.3,15.6,7.7
			C93.6,98.8,82.7,100.6,69.4,100.6"/>
		<path class="st0" d="M176.6,76.6c0.6,0.9,1.1,1.7,1.6,2.5c2-4.6,2.5-8.2,2.4-10.8C179.3,71.5,177.9,74.3,176.6,76.6"/>
		<path class="st1" d="M174.3,70.4c-1-1.1-2.2-2.3-3.4-3.4c-0.3-0.3-0.5-0.5-0.8-0.8c3.2-3.2,6-7.5,8-12.3c0.1,1.9,0,3.9-0.4,6
			C177.2,63.2,176,66.8,174.3,70.4"/>
		<path class="st2" d="M164.8,61.7c-2.8-2.1-5.8-4.1-9-6c4.2-3.5,9.7-9.4,12.3-17.6c1.7-5.5,1.9-10.3,1.4-14
			c2.2,2.1,4.2,5.2,4.9,9.8C175.9,44.5,170.8,56.1,164.8,61.7"/>
		<path class="st0" d="M174.4,95.1c-1.1-1.8-2.5-3.6-4-5.5c-11.9-14.4-28.4-24.4-37.9-29.4c3.9-1.5,7.5-2.6,11-3.3
			c3.3,1.6,14.3,7,22.7,15c10.3,9.8,10.1,15.7,10,18.3C176.1,91.8,175.3,93.7,174.4,95.1"/>
		<path class="st1" d="M167.8,113.3c-3.9-4.4-9.9-9.9-18.7-17.9c-11.5-10.5-26.3-20.1-35.6-25.8c3.6-2.2,7.2-4.1,10.6-5.8
			c7.2,3.3,27.4,13.7,40.9,30.2c5.9,7.2,8.2,13,6.5,16.3C170.8,111.8,169.3,112.8,167.8,113.3"/>
		<path class="st2" d="M161.5,130.1c-1.3,0-2.7-0.3-4.4-0.8c-4.4-1.5-17.7-12.5-27.5-20.5c-5.3-4.4-10.3-8.5-13.8-11
			c-7.1-5.2-17.5-10.4-23.8-13.3c3.4-2.7,8.6-6.6,14.8-10.7c9.1,5.5,25.2,15.7,37.5,26.8c16.9,15.3,22.7,20.9,21.9,25.3
			c-0.3,1.8-1,2.9-2.1,3.6C163.5,129.9,162.6,130.1,161.5,130.1"/>
	</g>
	<g>
		<polygon class="st0" points="258.4,14.3 271,14.3 258.8,62.5 244.1,62.5 236.4,34.3 228.7,62.5 214.3,62.5 201.9,14.3 214.5,14.3 
			221.8,48.8 231.2,14.3 241.7,14.3 251.2,48.8 		"/>
		<path class="st0" d="M281.6,20.8c5-4.9,11.1-7.3,18.2-7.3c7.1,0,13.2,2.4,18.2,7.3c5,4.9,7.5,10.7,7.5,17.7
			c0,6.9-2.5,12.8-7.5,17.7s-11.1,7.3-18.2,7.3c-7.1,0-13.2-2.4-18.2-7.3c-5-4.9-7.5-10.8-7.5-17.7
			C274.1,31.5,276.6,25.6,281.6,20.8 M309.8,28c-2.7-2.8-6.1-4.3-10-4.3s-7.3,1.4-10,4.3s-4.1,6.3-4.1,10.4c0,4.1,1.4,7.5,4.1,10.4
			c2.8,2.9,6.1,4.3,10,4.3s7.3-1.4,10-4.3c2.7-2.9,4.1-6.4,4.1-10.4C313.9,34.3,312.6,30.9,309.8,28"/>
		<path class="st0" d="M360.7,34.7h22.5v9.8c-0.4,3-1.2,5.7-2.5,8c-1.3,2.3-2.8,4.1-4.6,5.4s-3.5,2.4-5.2,3.2
			c-1.7,0.8-3.5,1.4-5.5,1.7c-1.9,0.3-3.3,0.5-4.1,0.6c-0.8,0.1-1.5,0.1-2.2,0.1c-7.1,0-13.2-2.4-18.2-7.3c-5-4.9-7.5-10.8-7.5-17.7
			c0-6.9,2.5-12.8,7.4-17.7c4.9-4.9,11-7.3,18.3-7.3c3.1,0,5.9,0.4,8.6,1.2c2.7,0.8,4.9,1.9,6.5,3.1c1.7,1.2,3.1,2.4,4.4,3.7
			s2.1,2.3,2.6,3.1l0.7,1.3l-8.5,5.7c-2.9-4.8-7.7-7.4-14.4-7.8c-3.9,0-7.3,1.4-10,4.3s-4.1,6.3-4.1,10.4c0,4.1,1.4,7.5,4.1,10.4
			s6.1,4.3,10,4.3c2.2,0,4.2-0.3,5.8-0.9c1.7-0.6,2.9-1.3,3.6-2.2c0.7-0.9,1.4-1.7,1.8-2.6c0.5-0.8,0.7-1.6,0.8-2.2l0.1-0.9h-10.6
			L360.7,34.7L360.7,34.7z"/>
		<path class="st0" d="M417.9,34.7h22.5v9.8c-0.4,3-1.2,5.7-2.5,8c-1.3,2.3-2.8,4.1-4.6,5.4s-3.5,2.4-5.2,3.2
			c-1.7,0.8-3.5,1.4-5.5,1.7c-1.9,0.3-3.3,0.5-4.1,0.6c-0.8,0.1-1.5,0.1-2.2,0.1c-7.1,0-13.2-2.4-18.2-7.3c-5-4.9-7.5-10.8-7.5-17.7
			c0-6.9,2.5-12.8,7.4-17.7c4.9-4.9,11-7.3,18.3-7.3c3.1,0,5.9,0.4,8.6,1.2s4.9,1.9,6.5,3.1c1.7,1.2,3.1,2.4,4.4,3.7
			s2.1,2.3,2.6,3.1l0.7,1.3l-8.5,5.7c-2.9-4.8-7.7-7.4-14.4-7.8c-3.9,0-7.3,1.4-10,4.3s-4.1,6.3-4.1,10.4c0,4.1,1.4,7.5,4.1,10.4
			s6.1,4.3,10,4.3c2.2,0,4.2-0.3,5.8-0.9c1.7-0.6,2.9-1.3,3.6-2.2c0.7-0.9,1.4-1.7,1.8-2.6s0.7-1.6,0.8-2.2l0.1-0.9h-10.6
			L417.9,34.7L417.9,34.7z"/>
		<polygon class="st0" points="459.8,14.3 459.8,52.3 482.3,52.3 482.3,62.5 448.6,62.5 448.6,14.3 		"/>
		<polygon class="st0" points="500.1,52.3 522.6,52.3 522.6,62.5 489,62.5 489,14.3 522.6,14.3 522.6,24.6 500.1,24.6 500.1,33.7 
			520.9,33.7 520.9,44 500.1,44 		"/>
		<path class="st0" d="M246.7,96.6c-3.4,0-6.2-1.2-8.6-3.5s-3.5-5.1-3.5-8.4s1.2-6.1,3.5-8.4c2.4-2.3,5.2-3.4,8.6-3.4
			c2.7,0,5.2,0.8,7.3,2.4c2.1,1.6,3.6,3.6,4.4,6.1h-4.4c-0.6-1.4-1.6-2.6-2.9-3.5s-2.8-1.3-4.4-1.3c-2.3,0-4.2,0.8-5.8,2.4
			s-2.4,3.5-2.4,5.8c0,2.2,0.8,4.2,2.5,5.8c1.6,1.6,3.6,2.4,5.8,2.4c1.6,0,3.1-0.4,4.4-1.3s2.3-2,2.9-3.5h4.4
			c-0.8,2.5-2.2,4.5-4.4,6.1C251.9,95.8,249.5,96.6,246.7,96.6"/>
		<path class="st0" d="M269.6,76.4c2.3-2.3,5.2-3.4,8.6-3.4s6.2,1.2,8.6,3.4c2.3,2.3,3.5,5.1,3.5,8.4c0,3.3-1.2,6.1-3.5,8.4
			c-2.3,2.3-5.2,3.5-8.6,3.5s-6.2-1.2-8.6-3.5c-2.3-2.3-3.5-5.1-3.5-8.4C266.1,81.5,267.3,78.7,269.6,76.4 M272.4,90.5
			c1.6,1.6,3.5,2.4,5.8,2.4c2.2,0,4.2-0.8,5.8-2.4s2.4-3.5,2.4-5.8c0-2.3-0.8-4.3-2.4-5.8s-3.5-2.4-5.8-2.4s-4.2,0.8-5.8,2.4
			c-1.6,1.6-2.4,3.5-2.4,5.8C269.9,87,270.7,88.9,272.4,90.5"/>
		<polygon class="st0" points="314.9,89.5 314.9,73.3 318.8,73.3 318.8,96.2 315.2,96.2 302.8,80 302.8,96.2 299,96.2 299,73.3 
			302.7,73.3 		"/>
		<path class="st0" d="M335.8,96.6c-4,0-6.9-1.4-8.9-4.3l2.8-2.2c0.5,0.7,1.4,1.4,2.5,2c1.1,0.6,2.4,0.9,3.8,0.9
			c0.9,0,1.6-0.1,2.3-0.4s1.1-0.5,1.4-0.9s0.5-0.7,0.6-1s0.2-0.5,0.2-0.7c0-0.8-0.5-1.4-1.3-1.9c-0.9-0.5-2-1-3.3-1.4
			c-1.3-0.4-2.5-0.8-3.8-1.4s-2.3-1.3-3.2-2.4c-0.9-1.1-1.3-2.4-1.3-3.9c0-0.6,0.1-1.2,0.4-1.9s0.6-1.3,1.2-2s1.4-1.2,2.5-1.7
			c1.1-0.4,2.4-0.6,3.9-0.6c1.5,0,2.9,0.3,4.1,0.8s2.1,1,2.6,1.4c0.5,0.5,1,1,1.3,1.5l-2.8,2.1c-1.3-1.5-3.1-2.2-5.6-2.2
			c-1,0-1.9,0.3-2.6,0.8s-1.2,1.2-1.2,2c0,0.8,0.3,1.5,1,2c0.6,0.6,1.5,1,2.4,1.3s2,0.6,3.1,1s2.2,0.8,3.1,1.3
			c1,0.4,1.8,1.1,2.4,2.1c0.6,0.9,1,2.1,1,3.3c0,0.6-0.1,1.2-0.4,1.9c-0.3,0.7-0.7,1.3-1.3,2c-0.6,0.7-1.5,1.3-2.7,1.7
			C338.7,96.4,337.3,96.6,335.8,96.6"/>
		<path class="st0" d="M361.7,96.6c-0.1,0-0.3,0-0.5,0s-0.7-0.1-1.3-0.2c-0.6-0.1-1.3-0.3-1.9-0.5s-1.2-0.6-2-1
			c-0.7-0.5-1.3-1-1.8-1.6s-1-1.4-1.3-2.5c-0.4-1-0.5-2.2-0.5-3.4v-14h3.8v14c0,0.3,0,0.6,0.1,0.9s0.2,0.8,0.4,1.4
			c0.2,0.6,0.5,1.1,0.9,1.6c0.4,0.5,0.9,0.9,1.6,1.2c0.7,0.3,1.6,0.5,2.6,0.5c1,0,1.8-0.2,2.6-0.5c0.7-0.3,1.3-0.7,1.6-1.2
			c0.4-0.5,0.6-1,0.9-1.6c0.2-0.6,0.3-1.1,0.4-1.4c0-0.3,0.1-0.7,0.1-0.9v-14h3.8v14c0,1.3-0.2,2.4-0.5,3.4c-0.4,1-0.8,1.8-1.4,2.5
			c-0.5,0.6-1.2,1.2-1.8,1.6s-1.3,0.8-2,1c-0.7,0.2-1.3,0.4-1.8,0.5c-0.5,0.1-1,0.2-1.3,0.2L361.7,96.6z"/>
		<polygon class="st0" points="383.8,73.3 383.8,92.6 395.2,92.6 395.2,96.2 380,96.2 380,73.3 		"/>
		<polygon class="st0" points="405.4,77 398.1,77 398.1,73.3 416.7,73.3 416.7,77 409.3,77 409.3,96.2 405.4,96.2 		"/>
		<rect x="424.8" y="73.3" class="st0" width="3.9" height="22.8"/>
		<polygon class="st0" points="453.8,89.5 453.8,73.3 457.7,73.3 457.7,96.2 454.1,96.2 441.7,80 441.7,96.2 437.9,96.2 437.9,73.3 
			441.6,73.3 		"/>
		<path class="st0" d="M480.4,83.4h9.5v3.7c-0.3,1.7-0.9,3.2-1.7,4.5c-0.8,1.3-1.7,2.2-2.6,2.8c-0.9,0.6-1.9,1.1-3,1.5
			c-1.1,0.3-2,0.6-2.5,0.6s-1,0.1-1.5,0.1c-3.4,0-6.3-1.2-8.6-3.5s-3.5-5.1-3.5-8.4s1.2-6.1,3.5-8.4c2.3-2.3,5.2-3.4,8.6-3.4
			c1.5,0,2.9,0.2,4.1,0.6s2.3,0.9,3.2,1.5c0.8,0.6,1.5,1.2,2,1.6c0.5,0.5,0.9,0.9,1.2,1.4l-3,2c-1.6-2.4-4.1-3.6-7.5-3.6
			c-2.3,0-4.2,0.8-5.8,2.4s-2.4,3.5-2.4,5.8c0,2.3,0.8,4.2,2.4,5.8s3.5,2.4,5.8,2.4c1.3,0,2.4-0.2,3.4-0.6c1-0.4,1.7-0.9,2.2-1.5
			c0.5-0.6,0.9-1.2,1.2-1.8c0.3-0.6,0.5-1.1,0.5-1.5l0.1-0.6h-5.5L480.4,83.4L480.4,83.4z"/>
		<text transform="matrix(1 0 0 1 235.9607 133.1975)" class="st0 st3 st4">BUSINESS, BUT SIMPLE</text>
		<rect x="201.9" y="107.6" class="st0" width="320.7" height="2"/>
	</g>
</g>
</svg>
